<?xml version="1.0" encoding="UTF-8"?>
<svg
  viewBox="0 0 64 64"
  width="100%"
  height="100%"
  xmlns="http://www.w3.org/2000/svg"
  role="img"
  aria-label="Silindir"
>
  <defs>
    <linearGradient id="cylBodyFill" x1="15%" y1="8%" x2="85%" y2="100%">
      <stop offset="0%" stop-color="#9b7d5d" stop-opacity="0.96" />
      <stop offset="58%" stop-color="#836749" stop-opacity="0.96" />
      <stop offset="100%" stop-color="#6f563b" stop-opacity="0.96" />
    </linearGradient>

    <linearGradient id="cylTopFill" x1="18%" y1="12%" x2="88%" y2="95%">
      <stop offset="0%" stop-color="#c7a985" />
      <stop offset="100%" stop-color="#8a6b4c" />
    </linearGradient>

    <linearGradient id="cylBaseFill" x1="16%" y1="10%" x2="84%" y2="96%">
      <stop offset="0%" stop-color="#a98965" />
      <stop offset="100%" stop-color="#75583a" />
    </linearGradient>

    <radialGradient id="bluePointBody" cx="32%" cy="26%" r="68%">
      <stop offset="0%" stop-color="#ffffff" />
      <stop offset="16%" stop-color="#9dccff" />
      <stop offset="42%" stop-color="#1f7aff" />
      <stop offset="72%" stop-color="#0066ff" />
      <stop offset="100%" stop-color="#003f9e" />
    </radialGradient>

    <radialGradient id="purplePointBody" cx="32%" cy="26%" r="68%">
      <stop offset="0%" stop-color="#d59be6" />
      <stop offset="20%" stop-color="#9a1bc0" />
      <stop offset="75%" stop-color="#6b007b" />
      <stop offset="100%" stop-color="#43004d" />
    </radialGradient>

    <radialGradient id="grayPointBody" cx="32%" cy="26%" r="68%">
      <stop offset="0%" stop-color="#8e95a3" />
      <stop offset="45%" stop-color="#4b5563" />
      <stop offset="100%" stop-color="#2f3b49" />
    </radialGradient>
  </defs>

  <path
    d="M 12 14
       A 20 6 0 0 1 52 14
       L 52 48
       A 20 6 0 0 1 12 48
       Z"
    fill="url(#cylBodyFill)"
  />

  <ellipse cx="32" cy="14" rx="20" ry="6" fill="url(#cylTopFill)" />
  <ellipse cx="32" cy="48" rx="20" ry="6" fill="url(#cylBaseFill)" opacity="0.9" />

  <line x1="32" y1="14" x2="32" y2="48" stroke="#8a187f" stroke-width="0.7" stroke-dasharray="2.2 1.9" stroke-linecap="round" opacity="0.48" />

  <ellipse cx="32" cy="14" rx="20" ry="6" fill="none" stroke="#111827" stroke-width="1.15" />
  <path d="M 12 48 A 20 6 0 0 0 52 48" fill="none" stroke="#111827" stroke-width="1.15" stroke-linecap="round" />
  <path d="M 12 48 A 20 6 0 0 1 52 48" fill="none" stroke="#111827" stroke-width="0.8" stroke-dasharray="2.4 2" opacity="0.55" />

  <line x1="12" y1="14" x2="12" y2="48" stroke="#111827" stroke-width="1.15" stroke-linecap="round" />
  <line x1="52" y1="14" x2="52" y2="48" stroke="#111827" stroke-width="1.15" stroke-linecap="round" />
  <line x1="48" y1="17.1" x2="48" y2="51.1" stroke="#111827" stroke-width="1.15" stroke-linecap="round" stroke-dasharray="3 2.4" />

  <line x1="32" y1="14" x2="48" y2="17.1" stroke="#5b3a1f" stroke-width="1.45" stroke-linecap="round" />
  <line x1="32" y1="48" x2="48" y2="51.1" stroke="#374151" stroke-width="1.45" stroke-linecap="round" />

  <circle cx="32" cy="14" r="1.65" fill="url(#purplePointBody)" stroke="#32003a" stroke-width="0.35" />
  <circle cx="32" cy="48" r="1.45" fill="url(#grayPointBody)" stroke="#2f3b49" stroke-width="0.35" />
  <circle cx="48" cy="17.1" r="1.55" fill="url(#bluePointBody)" stroke="#00358f" stroke-width="0.35" />
  <circle cx="48" cy="51.1" r="1.55" fill="url(#bluePointBody)" stroke="#00358f" stroke-width="0.35" />
</svg>
