<?xml version="1.0" encoding="UTF-8"?>
<svg
  viewBox="0 0 64 64"
  width="100%"
  height="100%"
  xmlns="http://www.w3.org/2000/svg"
  role="img"
  aria-label="Sil"
  stroke="rgb(0,0,255)"
  stroke-width="5"
>
  <g transform="translate(11.2 11.2) scale(0.32)">
  <path
    d="M 49 1 C 47.34 1 46 2.34 46 4 C 46 5.66 47.34 7 49 7 L 79 7 C 80.66 7 82 5.66 82 4 C 82 2.34 80.66 1 79 1 L 49 1 Z M 24 15 C 16.83 15 11 20.83 11 28 C 11 35.17 16.83 41 24 41 L 101 41 L 101 104 C 101 113.37 93.37 121 84 121 L 44 121 C 34.63 121 27 113.37 27 104 L 27 39.865 C 27 38.205 25.66 38.627 24 38.627 C 22.34 38.627 21 37.031 21 38.691 L 21 104 C 21 116.68 31.32 127 44 127 L 84 127 C 96.68 127 107 116.68 107 104 L 107 40.641 C 112.72 39.281 117 34.14 117 28 C 117 20.83 111.17 15 104 15 L 24 15 Z M 24 21 L 104 21 C 107.86 21 111 24.14 111 28 C 111 31.86 107.86 35 104 35 L 24 35 C 20.14 35 17 31.86 17 28 C 17 24.14 20.14 21 24 21 Z M 50 55 C 48.34 55 47 56.34 47 58 L 47 104 C 47 105.66 48.34 107 50 107 C 51.66 107 53 105.66 53 104 L 53 58 C 53 56.34 51.66 55 50 55 Z M 78 55 C 76.34 55 75 56.34 75 58 L 75 104 C 75 105.66 76.34 107 78 107 C 79.66 107 81 105.66 81 104 L 81 58 C 81 56.34 79.66 55 78 55 Z" />
  </g>
</svg>
