<?xml version="1.0" encoding="utf-8"?>
<svg width="500" height="500" fill="none" stroke="#808080" viewBox="90 0 200 200"
    xmlns="http://www.w3.org/2000/svg">
    <path d="M24.296,335.478h323.9"></path>
    <path d="M24.296,318.178h323.9"></path>
    <path d="M24.296,300.778h323.9"></path>
    <path d="M24.296,283.378h323.9"></path>
    <path d="M24.296,266.078h323.9"></path>
    <path d="M24.296,248.678h323.9"></path>
    <path d="M24.296,231.278h323.9"></path>
    <path d="M24.296,213.878h323.9"></path>
    <path d="M24.296,196.578h323.9"></path>
    <path d="M24.296,179.178h323.9"></path>
    <path d="M24.296,161.778h323.9"></path>
    <path d="M24.296,144.478h323.9"></path>
    <path d="M24.296,127.078h323.9"></path>
    <path d="M24.296,109.678h323.9"></path>
    <path d="M24.296,92.378h323.9"></path>
    <path d="M24.296,74.978h323.9"></path>
    <path d="M24.296,57.578h323.9"></path>
    <path d="M24.296,40.178h323.9"></path>
    <path d="M24.296,22.878h323.9"></path>
    <path d="M40.496,352.878V5.478"></path>
    <path d="M56.696,352.878V5.478"></path>
    <path d="M72.896,352.878V5.478"></path>
    <path d="M89.096,352.878V5.478"></path>
    <path d="M105.296,352.878V5.478"></path>
    <path d="M121.496,352.878V5.478"></path>
    <path d="M137.696,352.878V5.478"></path>
    <path d="M153.896,352.878V5.478"></path>
    <path d="M170.096,352.878V5.478"></path>
    <path d="M186.196,352.878V5.478"></path>
    <path d="M202.395,352.878V5.478"></path>
    <path d="M218.596,352.878V5.478"></path>
    <path d="M234.796,352.878V5.478"></path>
    <path d="M250.996,352.878V5.478"></path>
    <path d="M267.196,352.878V5.478"></path>
    <path d="M283.395,352.878V5.478"></path>
    <path d="M299.596,352.878V5.478"></path>
    <path d="M315.796,352.878V5.478"></path>
    <path d="M331.996,352.878V5.478"></path>
    <path d="M24.296,179.178h323.9 M186.196,352.878V5.478" stroke-width="10" stroke="rgb(0, 0, 0)"></path>
    <path stroke-width="20" stroke="rgb(255, 0, 0)"
        d="M 134.996 6.478 L 135.196 7.478 L 135.496 9.678 L 135.796 11.878 L 136.196 13.978 L 136.496 16.178 L 136.796 18.278 L 137.096 20.378 L 137.496 22.478 L 137.796 24.578 L 138.096 26.678 L 138.396 28.678 L 138.796 30.778 L 139.096 32.778 L 139.396 34.778 L 139.696 36.778 L 139.996 38.778 L 140.396 40.778 L 140.696 42.778 L 140.996 44.678 L 141.296 46.678 L 141.696 48.578 L 141.996 50.478 L 142.296 52.378 L 142.596 54.278 L 142.996 56.078 L 143.296 57.978 L 143.596 59.778 L 143.896 61.578 L 144.296 63.378 L 144.596 65.178 L 144.896 66.978 L 145.196 68.778 L 145.596 70.478 L 145.896 72.278 L 146.196 73.978 L 146.496 75.678 L 146.896 77.378 L 147.196 79.078 L 147.496 80.778 L 147.796 82.378 L 148.196 84.078 L 148.496 85.678 L 148.796 87.278 L 149.096 88.878 L 149.496 90.478 L 149.796 92.078 L 150.096 93.578 L 150.396 95.178 L 150.696 96.678 L 151.096 98.178 L 151.396 99.678 L 151.696 101.178 L 151.996 102.678 L 152.396 104.178 L 152.696 105.578 L 152.996 107.078 L 153.296 108.478 L 153.696 109.878 L 153.996 111.278 L 154.296 112.678 L 154.596 113.978 L 154.996 115.378 L 155.296 116.678 L 155.596 117.978 L 155.896 119.278 L 156.296 120.578 L 156.596 121.878 L 156.896 123.178 L 157.196 124.378 L 157.596 125.678 L 157.896 126.878 L 158.196 128.078 L 158.496 129.278 L 158.896 130.478 L 159.196 131.678 L 159.496 132.778 L 159.796 133.978 L 160.096 135.078 L 160.496 136.178 L 160.796 137.278 L 161.096 138.378 L 161.396 139.478 L 161.796 140.478 L 162.096 141.578 L 162.396 142.578 L 162.696 143.578 L 163.096 144.578 L 163.396 145.578 L 163.696 146.578 L 163.996 147.478 L 164.396 148.478 L 164.696 149.378 L 164.996 150.278 L 165.296 151.178 L 165.696 152.078 L 165.996 152.978 L 166.296 153.878 L 166.596 154.678 L 166.996 155.578 L 167.296 156.378 L 167.596 157.178 L 167.896 157.978 L 168.296 158.778 L 168.596 159.478 L 168.896 160.278 L 169.196 160.978 L 169.596 161.678 L 169.896 162.378 L 170.196 163.078 L 170.496 163.778 L 170.796 164.478 L 171.196 165.078 L 171.496 165.778 L 171.796 166.378 L 172.096 166.978 L 172.496 167.578 L 172.796 168.178 L 173.096 168.778 L 173.396 169.278 L 173.796 169.878 L 174.096 170.378 L 174.396 170.878 L 174.697 171.378 L 175.096 171.878 L 175.396 172.378 L 175.697 172.778 L 175.997 173.278 L 176.396 173.678 L 176.697 174.078 L 176.997 174.478 L 177.297 174.878 L 177.697 175.278 L 177.997 175.678 L 178.297 175.978 L 178.597 176.378 L 178.997 176.678 L 179.297 176.978 L 179.597 177.278 L 179.897 177.578 L 180.297 177.778 L 180.597 178.078 L 180.897 178.278 L 181.198 178.478 L 181.498 178.678 L 181.897 178.878 L 182.198 179.078 L 182.498 179.278 L 182.798 179.378 L 183.198 179.578 L 183.498 179.678 L 183.798 179.778 L 184.098 179.878 L 184.498 179.978 L 184.798 180.078 L 185.098 180.078 L 185.398 180.178 L 185.798 180.178 L 186.098 180.178 L 186.398 180.178 L 186.699 180.178 L 187.098 180.178 L 187.398 180.078 L 187.699 180.078 L 187.999 179.978 L 188.398 179.878 L 188.699 179.778 L 188.999 179.678 L 189.299 179.578 L 189.699 179.378 L 189.999 179.278 L 190.299 179.078 L 190.599 178.878 L 190.999 178.678 L 191.299 178.478 L 191.599 178.278 L 191.899 178.078 L 192.2 177.778 L 192.599 177.578 L 192.899 177.278 L 193.2 176.978 L 193.5 176.678 L 193.899 176.378 L 194.2 175.978 L 194.5 175.678 L 194.8 175.278 L 195.2 174.878 L 195.5 174.478 L 195.8 174.078 L 196.1 173.678 L 196.5 173.278 L 196.8 172.778 L 197.1 172.378 L 197.4 171.878 L 197.8 171.378 L 198.1 170.878 L 198.4 170.378 L 198.701 169.878 L 199.1 169.278 L 199.4 168.778 L 199.701 168.178 L 200.001 167.578 L 200.4 166.978 L 200.701 166.378 L 201.001 165.778 L 201.301 165.078 L 201.701 164.478 L 202.001 163.778 L 202.301 163.078 L 202.601 162.378 L 202.901 161.678 L 203.301 160.978 L 203.601 160.278 L 203.901 159.478 L 204.202 158.778 L 204.601 157.978 L 204.901 157.178 L 205.202 156.378 L 205.502 155.578 L 205.901 154.678 L 206.202 153.878 L 206.502 152.978 L 206.802 152.078 L 207.202 151.178 L 207.502 150.278 L 207.802 149.378 L 208.102 148.478 L 208.502 147.478 L 208.802 146.578 L 209.102 145.578 L 209.402 144.578 L 209.802 143.578 L 210.102 142.578 L 210.402 141.578 L 210.703 140.478 L 211.102 139.478 L 211.402 138.378 L 211.703 137.278 L 212.003 136.178 L 212.402 135.078 L 212.703 133.978 L 213.003 132.778 L 213.303 131.678 L 213.603 130.478 L 214.003 129.278 L 214.303 128.078 L 214.603 126.878 L 214.903 125.678 L 215.303 124.378 L 215.603 123.178 L 215.903 121.878 L 216.204 120.578 L 216.603 119.278 L 216.903 117.978 L 217.204 116.678 L 217.504 115.378 L 217.903 113.978 L 218.204 112.678 L 218.504 111.278 L 218.804 109.878 L 219.204 108.478 L 219.504 107.078 L 219.804 105.578 L 220.104 104.178 L 220.504 102.678 L 220.804 101.178 L 221.104 99.678 L 221.404 98.178 L 221.804 96.678 L 222.104 95.178 L 222.404 93.578 L 222.705 92.078 L 223.005 90.478 L 223.404 88.878 L 223.705 87.278 L 224.005 85.678 L 224.305 84.078 L 224.705 82.378 L 225.005 80.778 L 225.305 79.078 L 225.605 77.378 L 226.005 75.678 L 226.305 73.978 L 226.605 72.278 L 226.905 70.478 L 227.305 68.778 L 227.605 66.978 L 227.905 65.178 L 228.206 63.378 L 228.605 61.578 L 228.905 59.778 L 229.206 57.978 L 229.506 56.078 L 229.905 54.278 L 230.206 52.378 L 230.506 50.478 L 230.806 48.578 L 231.206 46.678 L 231.506 44.678 L 231.806 42.778 L 232.106 40.778 L 232.506 38.778 L 232.806 36.778 L 233.106 34.778 L 233.406 32.778 L 233.707 30.778 L 234.106 28.678 L 234.406 26.678 L 234.707 24.578 L 235.007 22.478 L 235.406 20.378 L 235.707 18.278 L 236.007 16.178 L 236.307 13.978 L 236.707 11.878 L 237.007 9.678 L 237.307 7.478 L 237.507 6.478"></path>
</svg>