<?xml version="1.0" encoding="UTF-8"?>
<svg id="katman_1" xmlns="http://www.w3.org/2000/svg" version="1.1"
  xmlns:xlink="http://www.w3.org/1999/xlink" viewBox="200 -100 1500 1300">
  <defs>
    <style>
      .st0 {
        fill: url(#Adsız_degrade_3);
      }

      .st1 {
        fill: #555;
        stroke: #2f2f2f;
      }

      .st1, .st2, .st3, .st4 {
        stroke-miterlimit: 48;
      }

      .st1, .st3, .st4 {
        stroke-width: 6.6px;
      }

      .st2 {
        fill: #6f6745;
        stroke: #4a422a;
        stroke-width: 6px;
      }

      .st5 {
        stroke-width: 16.2px;
      }

      .st5, .st6 {
        fill: none;
        stroke: #111827;
        stroke-linecap: round;
        stroke-linejoin: round;
      }

      .st7 {
        fill: url(#Adsız_degrade);
      }

      .st8 {
        fill: url(#Adsız_degrade_2);
      }

      .st3 {
        fill: #005eff;
        stroke: #00358f;
      }

      .st4 {
        fill: #6b007b;
        stroke: #2f0038;
      }

      .st6 {
        stroke-dasharray: 48 36;
        stroke-width: 15px;
      }
    </style>
    <linearGradient id="Adsız_degrade" data-name="Adsız degrade" x1=".02" y1="1080.02" x2="1.02"
      y2="1079.02" gradientTransform="translate(336 155664) scale(1152 -144)"
      gradientUnits="userSpaceOnUse">
      <stop offset="0" stop-color="#c9bea0" stop-opacity=".72" />
      <stop offset="1" stop-color="#9c936f" stop-opacity=".72" />
    </linearGradient>
    <linearGradient id="Adsız_degrade_2" data-name="Adsız degrade 2" x1=".05" y1="1080.05" x2="1.05"
      y2="1079.05" gradientTransform="translate(336 674184) scale(912 -624)"
      gradientUnits="userSpaceOnUse">
      <stop offset="0" stop-color="#8f855d" stop-opacity=".72" />
      <stop offset="1" stop-color="#726a45" stop-opacity=".72" />
    </linearGradient>
    <linearGradient id="Adsız_degrade_3" data-name="Adsız degrade 3" x1=".06" y1="1080.06" x2="1.06"
      y2="1079.06" gradientTransform="translate(1104 790716) scale(432 -732)"
      gradientUnits="userSpaceOnUse">
      <stop offset="0" stop-color="#9b9168" stop-opacity=".72" />
      <stop offset="1" stop-color="#7d754f" stop-opacity=".72" />
    </linearGradient>
  </defs>
  <polygon class="st7" points="336 264 984 144 1488 156 1104 288 336 264" />
  <polygon class="st8" points="336 264 1104 288 1248 888 576 816 336 264" />
  <polygon class="st0" points="1104 288 1488 156 1536 600 1248 888 1104 288" />
  <line class="st5" x1="336" y1="264" x2="1104" y2="288" />
  <line class="st5" x1="1104" y1="288" x2="1248" y2="888" />
  <line class="st5" x1="1248" y1="888" x2="576" y2="816" />
  <line class="st5" x1="576" y1="816" x2="336" y2="264" />
  <line class="st5" x1="336" y1="264" x2="984" y2="144" />
  <line class="st5" x1="984" y1="144" x2="1488" y2="156" />
  <line class="st5" x1="1488" y1="156" x2="1104" y2="288" />
  <line class="st5" x1="1488" y1="156" x2="1536" y2="600" />
  <line class="st5" x1="1536" y1="600" x2="1248" y2="888" />
  <line class="st6" x1="336" y1="264" x2="576" y2="816" />
  <line class="st6" x1="984" y1="144" x2="1081.53" y2="550.38" />
  <line class="st6" x1="1064.76" y1="540" x2="576" y2="816" />
  <line class="st6" x1="1081.53" y1="540" x2="1535.83" y2="602.73" />
  <circle class="st4" cx="336" cy="264" r="32.4" />
  <circle class="st3" cx="576" cy="816" r="32.4" />
  <circle class="st3" cx="1248" cy="888" r="32.4" />
  <circle class="st1" cx="1104" cy="288" r="29.4" />
  <circle class="st1" cx="984" cy="144" r="27" />
  <circle class="st1" cx="1488" cy="156" r="27" />
  <circle class="st1" cx="1536" cy="600" r="25.8" />
  <circle class="st2" cx="1077.34" cy="532.9" r="25.8" />
</svg>