<?xml version="1.0" encoding="utf-8"?>
<svg viewBox="-4 -4 72 72" xmlns="http://www.w3.org/2000/svg">
  <g transform="translate(32 32) scale(1 -1) scale(0.82) rotate(-45) scale(-1 1) translate(-32 -32)">
    <path
      d="M54 6
         C51 23 43 38 27 39
         L27 25
         C27 22 24 20 21 22
         L6 33
         C3 35 3 39 6 41
         L21 53
         C24 55 27 53 27 50
         L27 45
         C45 44 56 26 54 6Z"
      fill="rgb(0, 0, 255)"/>
    <path
      d="M54 6
         C51 23 43 38 27 39
         L27 33
         C40 32 48 21 54 6Z"
      fill="rgb(0, 0, 210)"
      opacity="0.75"/>
  </g>
</svg>
