<?xml version="1.0" encoding="utf-8"?>
<svg fill="rgb(0, 100, 0)" height="180px" width="180px" version="1.1"
  xmlns="http://www.w3.org/2000/svg"
  viewBox="-100 -100 450 450" stroke="rgb(0,100,0)" stroke-width="0">
  <path
    d="M 155.005 110.006 L 95.005 110.006 C 86.721 110.006 80.005 116.722 80.005 125.006 C 80.005 133.29 86.721 140.006 95.005 140.006 L 155.005 140.006 C 163.289 140.006 170.005 133.29 170.005 125.006 C 170.005 116.722 163.289 110.006 155.005 110.006 Z" />
  <path
    d="M325.606,304.394L223.329,202.116c16.707-21.256,26.682-48.04,26.682-77.111 C250.011,56.077,193.934,0,125.005,0C56.077,0,0,56.077,0,125.006C0,193.933,56.077,250.01,125.005,250.01 c29.07,0,55.855-9.975,77.111-26.681l102.277,102.277C307.322,328.536,311.161,330,315,330s7.678-1.464,10.606-4.394 C331.465,319.749,331.465,310.251,325.606,304.394z M30,125.006C30,72.619,72.619,30,125.005,30 c52.387,0,95.006,42.619,95.006,95.005c0,52.386-42.619,95.005-95.006,95.005C72.619,220.01,30,177.391,30,125.006z" />
</svg>