<?xml version="1.0" encoding="utf-8"?>
<svg version="1.0" width="128pt" height="128pt" viewBox="0 0 225 150"
  preserveAspectRatio="xMidYMid meet" xmlns="http://www.w3.org/2000/svg">
  <g transform="matrix(-0.10974, 0, 0, -0.109695, 236.001255, 198.447116)">
    <path
      d="M1303 1648 c-18 -5 -39 -19 -47 -31 -21 -32 -37 -148 -35 -252 l2&#10;-90 -54 3 c-30 2 -111 10 -181 18 -69 8 -209 19 -310 24 -101 6 -208 13 -239&#10;16 -45 5 -58 3 -73 -12 -16 -16 -18 -29 -12 -104 3 -47 9 -129 13 -183 4 -64&#10;11 -101 20 -109 8 -7 77 -15 166 -19 382 -20 610 -28 651 -23 l44 6 6 -88 c13&#10;-180 16 -195 39 -203 34 -13 68 6 237 129 268 195 370 289 370 341 0 36 -46&#10;84 -331 350 -74 70 -150 149 -169 177 -39 56 -50 62 -97 50z m396 -451 l122&#10;-118 -21 -29 c-25 -34 -153 -138 -315 -253 l-120 -86 -8 112 c-5 81 -11 115&#10;-22 123 -9 7 -99 13 -237 17 -123 3 -311 11 -419 18 l-196 12 -11 126 c-6 69&#10;-10 126 -9 128 7 6 382 -19 557 -38 185 -20 291 -21 307 -5 5 4 8 76 8 159 0&#10;84 3 157 7 163 4 6 52 -33 121 -100 62 -61 168 -164 236 -229z"
      style="fill: rgb(0, 50, 0); paint-order: fill; fill-rule: nonzero;" />
  </g>
</svg>