<?xml version="1.0" encoding="utf-8"?>
<svg fill="#000000" height="800px" width="800px" version="1.1" id="Capa_1" viewBox="0 0 214.367 214.367" xmlns="http://www.w3.org/2000/svg">
  <path d="M 184.641 97.452 C 184.641 135.125 157.604 166.597 121.916 173.497 L 121.916 194.373 L 65.169 161.834 L 121.916 129.297 L 121.916 148.408 C 144.022 142.006 160.237 121.593 160.237 97.451 C 160.237 68.197 136.437 44.398 107.183 44.398 C 77.93 44.398 54.13 68.197 54.13 97.451 C 54.13 105.331 55.812 112.908 59.13 119.975 L 37.042 130.349 C 32.188 120.012 29.726 108.944 29.726 97.452 C 29.727 54.743 64.474 19.995 107.183 19.995 C 149.894 19.995 184.641 54.743 184.641 97.452 Z" style="fill: rgb(0, 100, 0); transform-box: fill-box; transform-origin: 50% 50%;"/>
</svg>