<?xml version="1.0" standalone="no"?>
<!DOCTYPE svg PUBLIC "-//W3C//DTD SVG 20010904//EN"
 "http://www.w3.org/TR/2001/REC-SVG-20010904/DTD/svg10.dtd">
<svg version="1.0" xmlns="http://www.w3.org/2000/svg"
 width="1000.000000pt" height="1000.000000pt" viewBox="0 0 1000.000000 1000.000000"
 preserveAspectRatio="xMidYMid meet">

<g transform="translate(0.000000,1000.000000) scale(0.100000,-0.100000)"
fill="#000000" stroke="none">
<path d="M3795 9347 c-3 -6 -4 -161 -3 -342 l3 -330 320 -5 320 -5 0 -257 c0
-141 3 -254 6 -252 22 14 357 34 559 34 202 0 537 -20 559 -34 3 -2 6 111 6
252 l0 257 320 5 320 5 0 340 0 340 -1203 3 c-961 2 -1204 0 -1207 -11z"/>
<path d="M1590 8013 c-89 -93 -167 -167 -172 -165 -5 1 -7 -1 -4 -6 3 -5 -47
-60 -110 -123 -62 -62 -114 -119 -114 -125 0 -6 30 -40 67 -75 37 -35 66 -67
65 -72 -1 -4 2 -6 6 -5 5 2 57 -42 116 -97 59 -55 111 -101 115 -103 4 -1 45
36 90 83 46 47 88 85 93 85 5 0 102 -84 214 -186 l205 -186 92 83 c51 45 100
90 110 99 16 15 5 27 -193 205 -115 103 -210 195 -210 203 0 7 38 55 85 105
47 50 84 97 83 103 -2 6 -46 52 -100 102 -53 50 -94 93 -92 96 2 3 1 4 -3 1
-3 -3 -41 29 -84 70 -42 41 -81 75 -87 75 -6 0 -83 -75 -172 -167z"/>
<path d="M8151 8105 c-43 -41 -81 -73 -84 -70 -4 3 -5 2 -3 -1 2 -3 -39 -46
-92 -96 -54 -50 -98 -96 -100 -102 -1 -6 38 -54 87 -106 50 -52 90 -99 91
-103 0 -14 -313 -312 -324 -309 -6 2 -8 1 -5 -3 4 -3 -14 -26 -39 -49 l-46
-44 60 -54 c131 -120 152 -138 158 -138 4 0 93 82 197 183 104 100 196 184
205 185 10 3 49 -29 100 -79 l83 -82 99 91 c55 51 105 99 112 107 7 8 16 12
21 9 5 -3 8 -2 7 3 -1 4 28 37 65 72 37 35 67 69 67 75 0 6 -52 63 -114 125
-63 63 -113 118 -110 123 3 5 1 7 -4 6 -5 -2 -83 72 -172 165 -89 92 -166 167
-172 167 -6 0 -45 -34 -87 -75z"/>
<path d="M4780 7924 c-46 -4 -252 -26 -365 -40 -16 -2 -86 -15 -155 -29 -494
-102 -932 -284 -1352 -563 -367 -243 -742 -611 -990 -972 -356 -517 -573
-1114 -628 -1730 -13 -148 -13 -463 0 -610 65 -715 334 -1378 789 -1948 91
-114 290 -332 303 -332 5 0 6 -5 2 -12 -4 -6 -3 -8 3 -5 11 7 56 -36 48 -46
-3 -4 -2 -5 1 -2 4 2 39 -24 78 -59 555 -494 1258 -808 2041 -913 185 -25 705
-25 890 0 554 74 1030 237 1487 510 210 125 451 304 602 447 40 38 77 66 81
62 5 -4 5 -1 1 6 -4 6 -3 12 2 12 12 0 238 248 318 350 335 427 558 880 684
1395 78 318 105 578 97 930 -8 315 -35 513 -112 810 -326 1257 -1346 2272
-2627 2614 -116 31 -336 78 -398 86 -19 2 -93 11 -165 20 -125 15 -522 27
-635 19z m510 -394 c423 -39 823 -152 1194 -336 164 -82 243 -128 388 -226
478 -323 853 -746 1107 -1248 175 -345 283 -705 327 -1090 23 -202 15 -605
-16 -805 -89 -581 -315 -1095 -687 -1560 -108 -136 -345 -374 -479 -482 -875
-705 -2004 -934 -3071 -622 -530 155 -1019 445 -1413 839 -508 507 -823 1125
-930 1825 -31 200 -39 603 -16 805 138 1204 936 2228 2092 2684 285 112 645
195 954 219 106 8 444 6 550 -3z"/>
<path d="M4750 7283 c-505 -48 -938 -184 -1337 -421 -109 -65 -287 -186 -358
-245 l-30 -25 70 -74 c38 -40 137 -143 218 -227 82 -85 156 -169 164 -187 37
-76 -25 -164 -115 -164 l-47 -1 -238 243 -238 243 -100 -104 c-341 -354 -595
-816 -720 -1308 -43 -170 -76 -375 -86 -536 l-6 -107 325 0 c322 0 325 0 359
-23 84 -57 77 -166 -14 -208 -38 -17 -69 -19 -355 -19 l-313 0 6 -62 c15 -149
38 -301 61 -408 121 -543 381 -1027 763 -1423 l117 -120 204 212 c113 117 217
219 232 227 77 40 178 -23 178 -112 0 -43 -20 -68 -237 -293 l-193 -198 113
-80 c367 -263 744 -429 1180 -522 122 -26 389 -61 467 -61 l60 0 0 315 c0 351
1 359 64 389 43 20 69 20 112 0 63 -30 64 -38 64 -390 l0 -317 108 6 c329 20
714 115 1032 254 210 93 367 183 568 326 l113 81 -79 80 c-343 353 -352 363
-352 416 0 35 34 86 69 105 37 19 74 19 109 1 15 -8 119 -110 232 -227 l204
-212 117 120 c382 396 642 880 763 1423 23 107 46 259 61 408 l6 62 -313 0
c-286 0 -317 2 -355 19 -91 42 -98 151 -14 208 34 23 37 23 359 23 l325 0 -6
107 c-42 678 -340 1360 -806 1844 l-100 104 -238 -243 -238 -243 -47 1 c-90 0
-152 88 -115 164 8 18 82 102 164 187 81 84 180 187 218 227 l70 74 -30 25
c-71 59 -249 180 -358 245 -408 242 -883 389 -1369 423 l-98 7 0 -321 c0 -353
0 -355 -61 -387 -56 -28 -129 -11 -163 40 -14 22 -16 65 -16 346 l0 320 -47
-2 c-27 0 -64 -3 -83 -5z m1268 -1611 c29 -19 52 -63 52 -100 0 -38 -10 -53
-463 -686 -343 -479 -385 -542 -375 -560 6 -12 11 -46 11 -76 0 -137 -104
-240 -243 -240 -220 0 -326 255 -169 408 41 40 87 61 147 69 l47 6 415 583
c357 502 421 586 455 604 43 22 81 19 123 -8z"/>
</g>
</svg>
